<svg width="473" height="481" fill="none" xmlns="http://www.w3.org/2000/svg"><g opacity=".05" fill="#fff"><path d="M472.307 455.44c-18.907-6.663-36.27-16.518-53.039-26.036-17.482-9.915-35.637-20.166-55.099-26.591-34.172-11.223-80.737-20.523-127.738-25.52-21.264-2.261-41.319 5.354-60.722 12.71-25.381 9.637-51.633 19.592-80.578 7.337-23.164-9.815-36.013-29.942-48.427-49.415C34.607 328.969 22.094 309.377 0 299.006l.851-1.804c22.61 10.628 35.28 30.458 47.516 49.573 12.83 20.107 24.926 39.084 47.516 48.642 28.212 11.897 52.94 2.577 79.193-7.337 19.6-7.456 39.893-15.15 61.632-12.83 47.12 4.997 93.844 14.337 128.134 25.6 19.798 6.484 37.894 16.775 55.435 26.75 16.71 9.478 33.974 19.274 52.723 25.897l-.693 1.943Z"/><path d="M459.874 412.172c-14.592-5.948-25.54-13.722-36.152-21.257-14.413-10.251-28.034-19.948-49.614-24.529a645.426 645.426 0 0 0-125.957-12.789c-14.116 0-28.133.872-41.695 1.784-39.181 2.598-76.203 5.057-114.83-14.475-11.879-5.949-22.392-17.093-32.608-27.761-13.997-14.714-28.47-29.903-46.288-32.084l.258-1.983c18.511 2.26 33.221 17.727 47.515 32.679 10.097 10.608 20.551 21.574 32.074 27.404 38.21 19.314 74.956 16.875 113.859 14.277 13.602-.912 27.718-1.983 41.834-1.785a646.473 646.473 0 0 1 126.372 12.83c21.976 4.68 35.756 14.475 50.347 24.866 10.513 7.476 21.382 15.189 35.756 21.019l-.871 1.804Z"/><path d="M450.767 367.993c-6.158-4.085-11.543-7.932-16.75-11.68-21.204-15.169-36.528-26.115-70.026-27.047-14.552-.397-28.965 2.181-42.903 4.66-12.889 2.3-26.233 4.68-39.695 4.699h-.357c-57.732 0-122.432-24.37-172.383-45.607a248.514 248.514 0 0 1-23.204-12.076c-19.798-11.223-42.388-23.954-63.354-19.929l-.376-1.982c21.778-4.165 44.585 8.744 64.76 20.146a239.985 239.985 0 0 0 23.005 11.898c94.478 40.194 141.32 45.468 171.513 45.468h.455c13.285 0 26.549-2.379 39.359-4.679 14.017-2.499 28.509-5.096 43.299-4.68 34.112.952 49.634 12.056 71.115 27.424 5.187 3.708 10.572 7.555 16.69 11.62l-1.148 1.765Z"/><path d="M312.02 324.368c-17.165 0-39.913-9.776-58.464-17.846-6.87-2.955-13.364-5.731-18.927-7.773-36.211-13.246-72.501-28.138-107.584-42.554l-14.611-5.949c-3.366-1.388-6.85-2.895-10.394-4.442-23.54-10.271-50.208-21.911-72.68-6.048l-1.148-1.626c23.402-16.498 50.605-4.62 74.62 5.85 3.524 1.547 6.989 3.054 10.355 4.442l14.611 5.949c35.062 14.416 71.273 29.307 107.504 42.534 5.623 1.983 12.136 4.858 19.026 7.812 19.798 8.527 44.526 19.116 61.513 17.411 12.731-1.309 21.778-8.17 31.44-15.448 7.919-5.948 16.195-12.254 26.827-15.288 31.677-9.102 53.89 9.558 71.372 29.01l-1.465 1.329c-17.937-19.948-38.765-37.2-69.294-28.435-10.255 2.934-18.353 9.062-26.173 14.971-9.404 7.119-19.145 14.475-32.429 15.863a37.927 37.927 0 0 1-4.099.238Z"/><path d="M328.433 302.953c-17.581 0-40.665-10.47-59.553-19.037-7.246-3.291-14.076-6.385-19.798-8.586a4077.7 4077.7 0 0 1-41.101-15.863c-25.382-9.915-51.614-20.008-77.669-29.387-3.781-1.369-7.642-2.836-11.562-4.323-26.985-10.292-54.92-20.92-80.638-6.127l-.97-1.725c26.53-15.269 56.167-3.966 82.321 5.948 3.959 1.488 7.741 2.935 11.522 4.303 26.075 9.38 52.327 19.552 77.708 29.407 13.463 5.215 27.381 10.609 41.102 15.864 5.939 2.24 12.71 5.334 19.976 8.645 20.491 9.28 45.991 20.861 63.354 18.56 13.463-1.764 25.738-14.733 37.617-27.285 13.582-14.356 26.431-27.919 41.24-26.571 10.117.912 19.798 8.804 29.875 24.132l-1.663 1.071c-9.641-14.773-18.927-22.367-28.39-23.24-13.859-1.269-26.391 11.898-39.597 25.977-12.116 12.789-24.629 26.035-38.785 27.88-1.653.233-3.32.352-4.989.357Z"/><path d="M304.556 257.92c-34.369 0-71.273-15.526-107.088-30.557-49.179-20.642-100.021-41.998-146.507-24.945l-.614-1.785c47.16-17.311 98.377 4.184 147.893 24.985 36.013 15.13 73.253 30.775 107.564 30.398 18.432-.218 35.241-11.421 51.475-22.248 24.075-16.062 48.981-32.679 77.669-10.192l-1.228 1.546c-27.559-21.594-50.762-6.107-75.352 10.292-16.492 10.985-33.538 22.367-52.564 22.585l-1.248-.079ZM244.706 198.531c-23.421 0-47.298-3.371-70.422-6.643-34.805-4.937-70.779-10.033-105.505-3.648l-.356-1.983c35.043-6.445 71.274-1.329 106.138 3.629 24.788 3.509 50.426 7.118 75.352 6.563 20.234-.436 40.725-3.212 60.543-5.949 31.856-4.303 64.8-8.744 97.586-3.728l-.297 1.983c-32.509-4.977-65.334-.555-97.011 3.728-19.799 2.677-40.428 5.453-60.781 5.949-1.742.079-3.504.099-5.247.099ZM90.28 176.422l-.198-1.983c20.59-2.142 41.893-4.383 61.672-12.671a153.343 153.343 0 0 0 18.075-9.538c8.791-5.156 17.819-10.49 28.431-12.79 31.024-6.722 64.681-.516 97.229 5.473 27.123 5.017 55.178 10.172 81.47 7.793l.178 1.983c-26.55 2.399-54.742-2.796-82.005-7.813-32.35-5.949-65.809-12.116-96.457-5.493-10.255 2.221-18.788 7.238-27.836 12.552-5.882 3.626-12 6.852-18.313 9.657-20.056 8.408-41.497 10.648-62.246 12.83Z"/><path d="m112.81 165.178-.257-1.983c20.036-2.796 27.559-16.438 35.637-30.874 7.424-13.424 15.106-27.305 33.657-31.727 18.788-4.442 41.22-1.15 62.899 1.983 10.196 1.507 19.798 2.915 28.569 3.431 38.25 2.26 71.432 0 104.416-6.802l.396 1.983c-33.143 6.94-66.503 9.102-104.931 6.841-8.85-.515-18.511-1.983-28.747-3.45-21.501-3.153-43.754-6.405-62.167-1.983-17.64 4.164-24.767 17.053-32.31 30.716-7.999 14.217-16.136 28.93-37.162 31.865Z"/><path d="m129.54 149.672-1.327-1.468c7.702-6.98 10.315-15.189 13.107-23.894 2.079-6.544 4.237-13.325 8.77-19.433 12.077-16.28 27.203-20.245 47.239-24.092 15.106-2.895 29.915-5.453 44.229-7.932 53.06-9.2 103.169-17.846 156.802-41.027l.792 1.824c-53.851 23.22-104.079 31.926-157.257 41.146-14.294 2.479-29.104 5.057-44.19 7.932-19.6 3.748-34.37 7.614-46.031 23.319-4.316 5.83-6.434 12.453-8.473 18.838-2.673 8.606-5.504 17.45-13.661 24.787Z"/><path d="M439.937 481c-7.009-30.24-7.127-61.253-7.266-91.215 0-15.011-.119-30.557-1.049-45.885-.654-10.966-.456-22.903-.238-35.554.436-25.897.891-52.667-6.078-74.043-6.791-20.82-22.867-32.579-38.409-43.941-13.482-9.915-27.44-20.068-35.438-36.169-13.047-26.215-4.198-57.05 4.335-86.872 6.474-22.566 13.166-45.885 10.375-67.063l1.98-.258c2.85 21.574-3.96 45.112-10.414 67.876-8.454 29.446-17.185 59.904-4.495 85.444 7.801 15.646 21.541 25.778 34.845 35.435 15.839 11.541 32.133 23.498 39.122 44.934 6.988 21.435 6.612 48.641 6.177 74.697-.218 12.611-.416 24.509.237 35.395.931 15.388.99 30.954 1.05 46.004.138 29.863.257 60.757 7.226 90.799l-1.96.416Z"/><path d="m398.677 463.709-1.98-.238c1.861-15.209 4.396-29.348 6.831-43.01 5.345-30.041 10.414-58.417 7.484-92.206-.773-9.062-.931-18.878-1.109-29.249-.396-24.707-.792-50.247-9.622-70.116-8.216-18.501-25.421-29.744-42.071-40.67-15.364-10.054-31.262-20.464-40.547-36.645-15.047-26.234-4.554-58.456 5.583-89.608 4.93-15.11 9.562-29.368 11.087-42.336l1.98.218c-1.544 13.167-6.217 27.523-11.166 42.732-9.999 30.736-20.353 62.522-5.742 88.023 9.028 15.744 24.728 26.036 39.913 35.97 16.888 11.045 34.35 22.467 42.804 41.523 8.969 20.226 9.385 45.964 9.78 70.87.179 10.351.337 20.107 1.109 29.109 2.95 34.067-2.138 62.562-7.523 92.742-2.435 13.643-4.95 27.682-6.811 42.891Z"/><path d="m360.566 445.446-1.881-.634c1.524-4.541 3.148-9.102 4.851-13.881 7.305-20.523 14.828-41.761 14.769-62.562a124.539 124.539 0 0 0-2.673-21.534 128.636 128.636 0 0 1-2.712-22.07c0-10.133 1.881-20.861 3.781-31.231 3.128-17.173 6.375-34.94.673-50.882-8.038-22.566-28.37-37.022-49.891-52.33-19.977-14.218-40.626-28.911-50.228-50.644-12.83-29.03-.812-53.42 11.879-79.317 3.623-7.357 7.365-14.952 10.532-22.725l1.842.754c-3.208 7.931-6.969 15.466-10.593 22.843-12.512 25.401-24.332 49.415-11.878 77.572 9.384 21.238 29.816 35.693 49.495 49.831 20.828 14.813 42.349 30.141 50.605 53.282 5.939 16.458 2.593 34.483-.594 51.913-1.881 10.291-3.821 20.92-3.742 30.874a125.601 125.601 0 0 0 2.692 21.713 127.672 127.672 0 0 1 2.693 21.813c0 21.158-7.524 42.553-14.869 63.235-1.623 4.898-3.227 9.439-4.751 13.98Z"/><path d="m316.93 428.234-1.98-.377a258.517 258.517 0 0 0 3.168-35.692c.99-22.804 1.98-46.381 13.74-65.1a150.21 150.21 0 0 1 14.017-18.263c11.068-12.869 19.799-23.042 13.562-44.279-8.513-29.01-36.369-50.327-63.354-70.929-23.758-18.164-48.308-36.942-60.167-61.154-14.275-29.209 3.96-50.703 21.659-71.505 2.534-2.974 5.049-5.948 7.484-8.943l1.544 1.25c-2.455 2.994-4.989 5.949-7.523 8.982-17.244 20.306-35.083 41.305-21.382 69.403 11.641 23.795 36.013 42.435 59.592 60.46 27.263 20.741 55.396 42.256 64.087 72 6.554 22.268-2.494 32.798-13.957 46.123a146.549 146.549 0 0 0-13.859 18.045c-11.463 18.262-12.473 41.641-13.443 64.108a261.119 261.119 0 0 1-3.188 35.871Z"/><path d="M262.782 413.56h-1.98v-14.574c-.297-28.753-.475-46.123 32.549-62.086 4.93-2.399 10.235-4.541 15.363-6.603 15.126-6.088 29.42-11.898 34.073-23.299 2.732-6.723 1.98-14.892-2.534-25.005-13.859-31.727-42.566-56.296-70.264-80.051-22.986-19.71-46.744-40.115-62.008-64.505-23.976-38.33-6.494-51.556 22.471-73.369l2.969-2.24 1.208 1.586-3.029 2.38c-29.004 21.812-44.982 33.868-21.976 70.652 15.086 24.132 38.745 44.417 61.612 64.048 27.876 23.895 56.683 48.622 70.799 80.765 4.652 10.629 5.484 19.314 2.534 26.552-4.97 12.214-19.64 18.124-35.162 24.39-5.108 1.983-10.374 4.184-15.244 6.543-31.895 15.428-31.678 32.302-31.42 60.281.059 4.561.118 9.34.039 14.535Z"/><path d="m211.624 404.994-1.98-.119c2.455-41.205 16.729-52.31 51.178-69.502 3.96-1.983 8.058-3.846 11.998-5.651 15.225-6.98 29.598-13.563 33.657-25.203 2.475-7.079 1.069-15.685-4.316-26.314-7.919-15.744-28.628-36.208-50.486-57.881-38.309-37.993-81.707-81.043-76.401-116.299 2.198-14.555 12.75-26.85 31.36-36.586l.931 1.765c-18.294 9.558-28.213 21.04-30.331 35.118-5.167 34.245 37.874 76.938 75.827 114.594 21.976 21.812 42.725 42.355 50.862 58.397 5.642 11.124 7.088 20.246 4.435 27.86-4.336 12.433-19.086 19.195-34.707 26.353a322.804 322.804 0 0 0-11.879 5.632c-34.488 17.172-47.733 27.483-50.148 67.836Z"/><path d="m151.318 428.076-1.98-.357a262.363 262.363 0 0 1 43.556-104.957 213.699 213.699 0 0 1 13.859-17.033c13.186-15.309 26.827-31.132 23.758-52.35-3.366-23.418-19.798-45.845-35.835-67.519-27.282-37.041-55.435-75.351-12.988-116.576l1.367 1.427c-41.24 40.036-14.79 75.947 13.205 113.979 16.116 21.813 32.766 44.497 36.211 68.392 3.207 22.129-10.75 38.31-24.233 53.955a212.945 212.945 0 0 0-13.582 16.895 260.088 260.088 0 0 0-43.338 104.144Z"/><path d="m93.903 441.599-1.98-.198c1.248-12.037 2.277-24.37 3.267-36.288 2.831-33.849 5.761-68.847 13.859-102.299 5.939-24.926 15.838-39.183 27.381-55.681 4.85-6.98 9.899-14.198 14.928-22.764 13.581-22.943 9.8-47.809 5.801-74.142-3.841-25.144-7.781-51.16 3.959-76.482l1.802.833c-11.463 24.787-7.543 50.486-3.762 75.352 4.059 26.69 7.919 51.893-6.058 75.351-5.108 8.626-10.137 15.863-15.007 22.883-11.345 16.339-21.145 30.458-27.084 55.007-8.038 33.313-10.968 68.232-13.859 102.002-1.069 12.036-2.099 24.37-3.247 36.426Z"/><path d="m55.217 395.337-1.98-.138c.99-13.246.535-29.467 0-46.639-1.484-52.726-3.345-118.361 36.667-143.525 4.217-2.677 8.474-5.017 12.572-7.277 12.631-6.98 24.55-13.563 32.627-27.761 10.058-17.509 10.533-42.276 10.969-64.108.158-7.595.296-14.753.811-21.356l1.98.158c-.495 6.544-.653 13.682-.792 21.237-.435 22.07-.93 47.095-11.225 65.06-8.355 14.575-20.511 21.277-33.38 28.396-4.099 2.26-8.316 4.6-12.493 7.218-39.042 24.568-37.22 89.569-35.736 141.799.515 17.331 1.05 33.591-.02 46.936Z"/><path d="m26.411 340.37-1.98-.515c3.821-14.436 5.267-30.26 6.81-46.996 3.01-32.877 6.138-66.884 28.629-89.628 8.078-8.17 18.789-12.751 29.143-17.153 9.246-3.965 18.808-7.931 26.173-14.634 23.243-20.82 23.382-38.052 23.639-69.402h1.98c-.237 30.795-.396 49.395-24.292 70.81-7.623 6.822-17.324 10.966-26.728 14.971-10.176 4.343-20.709 8.824-28.51 16.716-21.995 22.249-25.084 55.899-28.073 88.419-1.386 16.161-2.91 32.798-6.791 47.412Z"/></g></svg>