<svg width="1049" height="496" viewBox="0 0 1049 496" fill="none" xmlns="http://www.w3.org/2000/svg">
<g opacity="0.05">
<path d="M206.247 495.81C198.225 495.823 190.21 495.299 182.258 494.242C116.865 485.521 57.5247 441.531 0.687766 359.742L0 358.752L0.907856 357.954L369.413 28.4591L370.266 29.8621C387.845 57.7304 406.25 73.3014 426.58 77.428C458.107 83.838 490.515 61.3068 521.849 39.5184C553.652 17.5099 586.554 -5.48904 619.237 1.16853C640.255 5.43268 659.21 21.3063 677.147 49.6973L823.366 139.134C836.576 138.029 849.866 138.342 863.009 140.07C928.401 148.791 987.742 192.78 1044.58 274.569L1048.29 279.934L822.706 141.885C722.787 150.441 621.685 235.422 523.527 318.119C419.62 405.63 312.438 495.81 206.247 495.81ZM3.74145 359.219C59.7806 439.688 118.296 483.017 182.561 491.546C295.354 506.566 410.431 409.784 521.684 316.138C618.989 234.294 719.183 150.001 818.799 139.63L675.166 51.7331L675.001 51.458C657.422 23.5897 639.017 7.99118 618.577 3.86459C587.049 -2.54539 554.642 19.9858 523.307 41.7742C491.505 63.7827 458.63 86.7816 425.92 80.1241C405.149 75.9149 386.442 60.3989 368.698 32.6957L3.74145 359.219ZM827.41 141.665L1038.42 270.773C983.395 193.138 925.76 151.267 862.651 142.848C850.97 141.319 839.169 140.913 827.41 141.638V141.665Z" fill="white"/>
<path d="M244.79 426.648C237.428 426.653 230.075 426.156 222.781 425.163C164.899 417.212 112.381 377.927 61.9814 305.024L64.2648 303.455C114.059 375.671 166.054 414.598 223.276 422.439C322.535 436.029 423.801 351.654 521.739 270.03C620.172 188.021 721.934 103.371 822.375 117.126C880.368 125.077 932.996 164.362 983.285 237.265L981.002 238.833C931.207 166.59 879.212 127.69 821.99 119.85C722.759 106.259 621.465 190.634 523.527 272.258C432.247 348.215 338.106 426.648 244.79 426.648Z" fill="white"/>
<path d="M283.304 357.486C276.695 357.484 270.095 357.016 263.552 356.083C212.905 348.903 167.017 314.295 123.248 250.277L125.503 248.737C168.86 312.011 214.17 346.289 263.992 353.277C349.688 365.437 437.309 293.469 521.822 223.977C606.912 153.963 694.891 81.6097 781.77 93.9344C832.417 101.115 878.304 135.723 922.074 199.74L919.818 201.281C876.461 138.006 831.151 103.728 781.329 96.7405C695.634 84.5808 608.012 156.549 523.5 226.04C444.874 290.745 363.746 357.486 283.304 357.486Z" fill="white"/>
<path d="M321.874 288.325C315.954 288.333 310.041 287.901 304.185 287.032C260.938 280.594 221.653 250.663 184.376 195.559L186.66 194.156C223.579 248.599 262.149 278.146 304.598 284.446C376.731 295.202 450.404 235.614 521.767 177.979C593.542 119.987 667.766 60.0139 741.081 70.9356C784.328 77.3731 823.613 107.277 860.89 162.409L858.607 163.949C821.688 109.506 783.118 79.9591 740.669 73.6592C668.536 62.93 594.862 122.491 523.5 180.125C457.502 233.303 389.44 288.325 321.874 288.325Z" fill="white"/>
<path d="M360.444 219.218C355.212 219.226 349.987 218.821 344.818 218.007C309.054 212.312 276.482 187.058 245.56 140.812L247.843 139.272C278.325 184.857 310.182 209.726 345.258 215.284C403.856 224.555 463.802 177.374 521.794 131.734C580.227 85.736 640.668 38.1977 700.448 47.6338C736.212 53.3285 768.785 78.5833 799.707 124.829L797.396 126.369C766.942 80.7841 735.084 55.9145 700.008 50.3574C641.438 41.0863 581.465 88.267 523.472 133.907C470.019 175.916 414.998 219.218 360.444 219.218Z" fill="white"/>
<path d="M399.069 150.139C394.458 150.149 389.855 149.753 385.314 148.956C356.813 144.004 331.063 123.398 306.606 86.0115L308.917 84.4984C332.934 121.225 358.078 141.418 385.782 146.26C430.844 154.1 477.007 119.272 521.657 85.5713C566.774 51.5406 613.432 16.327 659.677 24.3876C688.178 29.3671 713.928 49.945 738.358 87.332L736.074 88.845C712.058 52.1459 686.913 31.9255 659.21 27.1112C614.12 19.2431 567.985 54.0991 523.335 87.6346C482.757 118.529 440.83 150.139 399.069 150.139Z" fill="white"/>
<path d="M625.624 2.83442L624.27 5.22906L869.074 143.676L870.428 141.282L625.624 2.83442Z" fill="white"/>
<path d="M574.915 8.53041L572.655 10.0985L695.06 186.546L697.321 184.977L574.915 8.53041Z" fill="white"/>
<path d="M524.023 40.6463H521.271V317.183H524.023V40.6463Z" fill="white"/>
<path d="M470.005 71.3862L347.827 448.083L350.444 448.932L472.622 72.235L470.005 71.3862Z" fill="white"/>
<path d="M418.95 76.4387L174.444 491.196L176.814 492.594L421.32 77.8358L418.95 76.4387Z" fill="white"/>
</g>
</svg>
