<svg width="18" height="16" viewBox="0 0 18 16" fill="none" xmlns="http://www.w3.org/2000/svg">
<path d="M18 10.2267V11.1556C18 11.2089 17.967 11.2563 17.919 11.277C17.625 11.4015 16.6185 11.8578 16.2 12.4326C15.132 13.9007 14.316 16 12.492 16H4.88249C2.18551 16 0 13.8341 0 11.1615V11.0756C0 11.0044 0.0584869 10.9467 0.130493 10.9467H4.37251C4.45649 10.9467 4.51799 11.0237 4.51051 11.1052C4.48049 11.3778 4.53151 11.6563 4.662 11.9096C4.91399 12.4148 5.436 12.7304 5.99999 12.7304H8.10001V11.1111H6.02399C5.9175 11.1111 5.85452 10.9896 5.91601 10.9037C5.9385 10.8696 5.96402 10.8341 5.991 10.7941C6.18751 10.5185 6.468 10.0904 6.74701 9.60297C6.93751 9.27409 7.12199 8.92297 7.2705 8.57038C7.30052 8.50668 7.32449 8.44147 7.34849 8.37776C7.38899 8.26518 7.43101 8.16 7.461 8.05482C7.49102 7.96591 7.51499 7.87259 7.53899 7.78518C7.60951 7.48591 7.6395 7.16888 7.6395 6.84C7.6395 6.71112 7.63351 6.57629 7.62151 6.44741C7.61549 6.30668 7.59751 6.16591 7.57949 6.02518C7.56749 5.90073 7.54501 5.77776 7.521 5.64888C7.49102 5.46074 7.449 5.27409 7.40099 5.08591L7.3845 5.01482C7.34849 4.88591 7.3185 4.76297 7.27651 4.63409C7.15799 4.22962 7.02151 3.83556 6.8775 3.46668C6.825 3.32 6.76499 3.17926 6.70499 3.03853C6.61651 2.82668 6.52649 2.63409 6.444 2.45185C6.40201 2.36888 6.36601 2.29332 6.33001 2.21629C6.28951 2.12888 6.24752 2.04147 6.2055 1.95853C6.17551 1.89482 6.141 1.83556 6.11699 1.77629L5.8605 1.30815C5.8245 1.24444 5.88451 1.16888 5.95499 1.18815L7.56002 1.61776H7.56451C7.56749 1.61776 7.56901 1.61926 7.5705 1.61926L7.78199 1.67703L8.01451 1.74224L8.10001 1.76591V0.823706C8.10001 0.368882 8.469 0 8.92501 0C9.15301 0 9.36 0.0918527 9.50851 0.241471C9.65699 0.391117 9.75 0.595558 9.75 0.823706V2.22224L9.92102 2.26962C9.93451 2.27409 9.948 2.28 9.96 2.28888C10.002 2.32 10.062 2.36591 10.1385 2.42223C10.1985 2.46962 10.263 2.52741 10.341 2.58668C10.4955 2.70962 10.68 2.86815 10.8825 3.05038C10.9365 3.09629 10.989 3.14371 11.037 3.19112C11.298 3.43112 11.5905 3.71259 11.8695 4.02371C11.9475 4.11112 12.024 4.2 12.102 4.29332C12.18 4.38815 12.2625 4.48147 12.3345 4.57482C12.429 4.69926 12.531 4.82815 12.6195 4.96297C12.6615 5.02668 12.7095 5.09185 12.75 5.15556C12.864 5.32591 12.9645 5.50223 13.0605 5.67853C13.101 5.76 13.143 5.84888 13.179 5.93629C13.2855 6.17185 13.3695 6.41185 13.4235 6.65185C13.44 6.70371 13.452 6.76 13.458 6.81038V6.82223C13.476 6.89332 13.482 6.96888 13.488 7.04591C13.512 7.29185 13.5 7.53776 13.446 7.78518C13.4235 7.89038 13.3935 7.98962 13.3575 8.09482C13.3215 8.19556 13.2855 8.30073 13.239 8.4C13.149 8.60591 13.0425 8.81185 12.9165 9.00444C12.876 9.07556 12.828 9.15112 12.78 9.22223C12.7275 9.29776 12.6735 9.36888 12.6255 9.43853C12.5595 9.52741 12.489 9.62073 12.417 9.7037C12.3525 9.79112 12.2865 9.87853 12.2145 9.95556C12.114 10.0726 12.018 10.1837 11.9175 10.2904C11.8575 10.36 11.793 10.4311 11.727 10.4948C11.6625 10.5659 11.5965 10.6296 11.5365 10.6889C11.436 10.7881 11.352 10.8652 11.2815 10.9289L11.1165 11.0785C11.0925 11.0993 11.061 11.1111 11.028 11.1111H9.75V12.7304H11.358C11.718 12.7304 12.06 12.6044 12.336 12.3733C12.4305 12.2919 12.843 11.9393 13.3305 11.4074C13.347 11.3896 13.368 11.3763 13.392 11.3704L17.8335 10.1022C17.916 10.0785 18 10.1407 18 10.2267Z" fill="#040003"/>
<path d="M1.02045 8.81001L1.0822 8.71571L4.80574 3.05727C4.86016 2.97443 4.98809 2.983 5.02926 3.07299C5.65133 4.42724 6.18809 6.11149 5.93662 7.16004C5.82927 7.59147 5.53516 8.17573 5.20426 8.71571C5.16163 8.7943 5.11457 8.87144 5.06455 8.94572C5.04102 8.98001 5.00132 9 4.95866 9H1.12926C1.02632 9 0.966032 8.89144 1.02045 8.81001Z" fill="#040003"/>
</svg>
