<svg width="20" height="16" viewBox="0 0 20 16" fill="none" xmlns="http://www.w3.org/2000/svg">
<path d="M20 1.93877C19.2857 2.24489 18.4694 2.44898 17.6531 2.55102C18.4694 2.04082 19.1837 1.22449 19.4898 0.306126C18.6735 0.81633 17.8572 1.12245 16.8367 1.32653C16.1225 0.510207 15 0 13.8775 0C11.6326 0 9.79591 1.83674 9.79591 4.08163C9.79591 4.38776 9.79592 4.69387 9.89796 5C6.53061 4.79591 3.46938 3.16326 1.42857 0.714283C1.12244 1.32653 0.918362 2.04081 0.918362 2.7551C0.918362 4.18367 1.63265 5.40817 2.7551 6.12245C2.04081 6.12245 1.42857 5.91837 0.918362 5.61225C0.918362 7.55102 2.34693 9.28571 4.18367 9.59183C3.87754 9.69388 3.46939 9.69388 3.06123 9.69388C2.7551 9.69388 2.55102 9.69388 2.2449 9.59183C2.7551 11.2245 4.28572 12.449 6.12245 12.449C4.69388 13.5714 2.95919 14.1837 1.02041 14.1837C0.714286 14.1837 0.408163 14.1837 0 14.0816C1.83674 15.2041 3.97959 15.9184 6.32653 15.9184C13.8776 15.9184 17.9592 9.69388 17.9592 4.28571V3.77551C18.7755 3.46939 19.4898 2.7551 20 1.93877Z" fill="#040003"/>
</svg>
